<?xml version="1.0" standalone="no"?><!DOCTYPE svg PUBLIC "-//W3C//DTD SVG 1.1//EN" "http://www.w3.org/Graphics/SVG/1.1/DTD/svg11.dtd"><svg class="icon" width="32px" height="32.00px" viewBox="0 0 1024 1024" version="1.1" xmlns="http://www.w3.org/2000/svg"><path fill="#8a8a8a" d="M509 946c-58.57 0-115.42-11.48-168.94-34.12-51.68-21.86-98.09-53.15-137.94-93-39.85-39.85-71.13-86.26-93-137.94C86.48 627.42 75 570.57 75 512s11.48-115.42 34.12-168.94c21.86-51.68 53.15-98.09 93-137.94 39.85-39.85 86.26-71.13 137.94-93C393.58 89.48 450.43 78 509 78s115.42 11.48 168.94 34.12c51.68 21.86 98.09 53.15 137.94 93 39.85 39.85 71.13 86.26 93 137.94C931.52 396.58 943 453.43 943 512s-11.48 115.42-34.12 168.94c-21.86 51.68-53.15 98.09-93 137.94-39.85 39.85-86.26 71.13-137.94 93C624.42 934.52 567.57 946 509 946z m0-798c-200.71 0-364 163.29-364 364s163.29 364 364 364 364-163.29 364-364-163.29-364-364-364zM379 420m-45 0a45 45 0 1 0 90 0 45 45 0 1 0-90 0ZM639 420m-45 0a45 45 0 1 0 90 0 45 45 0 1 0-90 0ZM509 715.08c-76.73 0-139.16-62.43-139.16-139.16 0-11.05 8.95-20 20-20s20 8.95 20 20c0 54.68 44.48 99.16 99.16 99.16s99.16-44.48 99.16-99.16c0-11.05 8.95-20 20-20s20 8.95 20 20c0 76.73-62.43 139.16-139.16 139.16z" /></svg>